<?xml version="1.0"?>
<svg width="471.5" height="76.504" xmlns="http://www.w3.org/2000/svg" xmlns:svg="http://www.w3.org/2000/svg" version="1.1">
 <metadata id="metadata38">image/svg+xmlOpenclipart</metadata>
 <g class="layer">
  <title>Layer 1</title>
  <g id="layer1" transform="translate(-41.39 -42.68)">
   <g id="g2252" transform="matrix(.5 0 0 .5 424.39 -101.75)">
    <rect fill="#ffffff" fill-rule="evenodd" height="150" id="rect2254" rx="50" ry="50" stroke="#000000" stroke-width="3" width="150" x="25.5" y="290.36"/>
    <path d="m337.5,227.36c0,6.9 -5.6,12.5 -12.5,12.5s-12.5,-5.6 -12.5,-12.5s5.6,-12.5 12.5,-12.5s12.5,5.6 12.5,12.5z" fill="#000000" fill-rule="evenodd" id="path2256" stroke="#000000" stroke-width="3" transform="translate(-261,101.5)"/>
    <path d="m337.5,227.36c0,6.9 -5.6,12.5 -12.5,12.5s-12.5,-5.6 -12.5,-12.5s5.6,-12.5 12.5,-12.5s12.5,5.6 12.5,12.5z" fill="#000000" fill-rule="evenodd" id="path2258" stroke="#000000" stroke-width="3" transform="translate(-261,173.5)"/>
    <path d="m337.5,227.36c0,6.9 -5.6,12.5 -12.5,12.5s-12.5,-5.6 -12.5,-12.5s5.6,-12.5 12.5,-12.5s12.5,5.6 12.5,12.5z" fill="#000000" fill-rule="evenodd" id="path2260" stroke="#000000" stroke-width="3" transform="translate(-261,137.5)"/>
    <path d="m337.5,227.36c0,6.9 -5.6,12.5 -12.5,12.5s-12.5,-5.6 -12.5,-12.5s5.6,-12.5 12.5,-12.5s12.5,5.6 12.5,12.5z" fill="#000000" fill-rule="evenodd" id="path2262" stroke="#000000" stroke-width="3" transform="translate(-189,101.5)"/>
    <path d="m337.5,227.36c0,6.9 -5.6,12.5 -12.5,12.5s-12.5,-5.6 -12.5,-12.5s5.6,-12.5 12.5,-12.5s12.5,5.6 12.5,12.5z" fill="#000000" fill-rule="evenodd" id="path2264" stroke="#000000" stroke-width="3" transform="translate(-189,173.5)"/>
    <path d="m337.5,227.36c0,6.9 -5.6,12.5 -12.5,12.5s-12.5,-5.6 -12.5,-12.5s5.6,-12.5 12.5,-12.5s12.5,5.6 12.5,12.5z" fill="#000000" fill-rule="evenodd" id="path2266" stroke="#000000" stroke-width="3" transform="translate(-189,137.5)"/>
   </g>
   <g id="g2268" transform="matrix(.5 0 0 .5 251.64 -95.497)">
    <rect fill="#ffffff" fill-rule="evenodd" height="150" id="rect2270" rx="50" ry="50" stroke="#000000" stroke-width="3" width="150" x="213" y="277.86"/>
    <path d="m337.5,227.36c0,6.9 -5.6,12.5 -12.5,12.5s-12.5,-5.6 -12.5,-12.5s5.6,-12.5 12.5,-12.5s12.5,5.6 12.5,12.5z" fill="#000000" fill-rule="evenodd" id="path2272" stroke="#000000" stroke-width="3" transform="translate(-73.5,89)"/>
    <path d="m337.5,227.36c0,6.9 -5.6,12.5 -12.5,12.5s-12.5,-5.6 -12.5,-12.5s5.6,-12.5 12.5,-12.5s12.5,5.6 12.5,12.5z" fill="#000000" fill-rule="evenodd" id="path2274" stroke="#000000" stroke-width="3" transform="translate(-73.5,161)"/>
    <path d="m337.5,227.36c0,6.9 -5.6,12.5 -12.5,12.5s-12.5,-5.6 -12.5,-12.5s5.6,-12.5 12.5,-12.5s12.5,5.6 12.5,12.5z" fill="#000000" fill-rule="evenodd" id="path2276" stroke="#000000" stroke-width="3" transform="translate(-1.5,89)"/>
    <path d="m337.5,227.36c0,6.9 -5.6,12.5 -12.5,12.5s-12.5,-5.6 -12.5,-12.5s5.6,-12.5 12.5,-12.5s12.5,5.6 12.5,12.5z" fill="#000000" fill-rule="evenodd" id="path2278" stroke="#000000" stroke-width="3" transform="translate(-1.5,161)"/>
    <path d="m337.5,227.36c0,6.9 -5.6,12.5 -12.5,12.5s-12.5,-5.6 -12.5,-12.5s5.6,-12.5 12.5,-12.5s12.5,5.6 12.5,12.5z" fill="#000000" fill-rule="evenodd" id="path2280" stroke="#000000" stroke-width="3" transform="translate(-37.5,125)"/>
   </g>
   <g id="g2282" transform="matrix(.5 0 0 .5 66.393 -89.247)">
    <rect fill="#ffffff" fill-rule="evenodd" height="150" id="rect2284" rx="50" ry="50" stroke="#000000" stroke-width="3" width="150" x="425.5" y="265.36"/>
    <path d="m337.5,227.36c0,6.9 -5.6,12.5 -12.5,12.5s-12.5,-5.6 -12.5,-12.5s5.6,-12.5 12.5,-12.5s12.5,5.6 12.5,12.5z" fill="#000000" fill-rule="evenodd" id="path2286" stroke="#000000" stroke-width="3" transform="translate(139,76.5)"/>
    <path d="m337.5,227.36c0,6.9 -5.6,12.5 -12.5,12.5s-12.5,-5.6 -12.5,-12.5s5.6,-12.5 12.5,-12.5s12.5,5.6 12.5,12.5z" fill="#000000" fill-rule="evenodd" id="path2288" stroke="#000000" stroke-width="3" transform="translate(139,148.5)"/>
    <path d="m337.5,227.36c0,6.9 -5.6,12.5 -12.5,12.5s-12.5,-5.6 -12.5,-12.5s5.6,-12.5 12.5,-12.5s12.5,5.6 12.5,12.5z" fill="#000000" fill-rule="evenodd" id="path2290" stroke="#000000" stroke-width="3" transform="translate(211,76.5)"/>
    <path d="m337.5,227.36c0,6.9 -5.6,12.5 -12.5,12.5s-12.5,-5.6 -12.5,-12.5s5.6,-12.5 12.5,-12.5s12.5,5.6 12.5,12.5z" fill="#000000" fill-rule="evenodd" id="path2292" stroke="#000000" stroke-width="3" transform="translate(211,148.5)"/>
   </g>
   <g id="g2294" transform="matrix(.5 0 0 .5 -6.3571 42.003)">
    <rect fill="#ffffff" fill-rule="evenodd" height="150" id="rect2296" rx="50" ry="50" stroke="#000000" stroke-width="3" width="150" x="413" y="2.86"/>
    <path d="m337.5,227.36c0,6.9 -5.6,12.5 -12.5,12.5s-12.5,-5.6 -12.5,-12.5s5.6,-12.5 12.5,-12.5s12.5,5.6 12.5,12.5z" fill="#000000" fill-rule="evenodd" id="path2298" stroke="#000000" stroke-width="3" transform="translate(126.5,-186)"/>
    <path d="m337.5,227.36c0,6.9 -5.6,12.5 -12.5,12.5s-12.5,-5.6 -12.5,-12.5s5.6,-12.5 12.5,-12.5s12.5,5.6 12.5,12.5z" fill="#000000" fill-rule="evenodd" id="path2300" stroke="#000000" stroke-width="3" transform="translate(198.5,-114)"/>
    <path d="m337.5,227.36c0,6.9 -5.6,12.5 -12.5,12.5s-12.5,-5.6 -12.5,-12.5s5.6,-12.5 12.5,-12.5s12.5,5.6 12.5,12.5z" fill="#000000" fill-rule="evenodd" id="path2302" stroke="#000000" stroke-width="3" transform="translate(162.5,-150)"/>
   </g>
   <g id="g2304" transform="matrix(.5 0 0 .5 -185.36 23.253)">
    <rect fill="#ffffff" fill-rule="evenodd" height="150" id="rect2306" rx="50" ry="50" stroke="#000000" stroke-width="3" width="150" x="613" y="40.36"/>
    <path d="m337.5,227.36c0,6.9 -5.6,12.5 -12.5,12.5s-12.5,-5.6 -12.5,-12.5s5.6,-12.5 12.5,-12.5s12.5,5.6 12.5,12.5z" fill="#000000" fill-rule="evenodd" id="path2308" stroke="#000000" stroke-width="3" transform="translate(326.5,-148.5)"/>
    <path d="m337.5,227.36c0,6.9 -5.6,12.5 -12.5,12.5s-12.5,-5.6 -12.5,-12.5s5.6,-12.5 12.5,-12.5s12.5,5.6 12.5,12.5z" fill="#000000" fill-rule="evenodd" id="path2310" stroke="#000000" stroke-width="3" transform="translate(398.5,-76.5)"/>
   </g>
   <g id="g2312" transform="matrix(.5 0 0 .5 -251.86 -76.747)">
    <rect fill="#ffffff" fill-rule="evenodd" height="150" id="rect2314" rx="50" ry="50" stroke="#000000" stroke-width="3" width="150" x="588" y="240.36"/>
    <path d="m337.5,227.36c0,6.9 -5.6,12.5 -12.5,12.5s-12.5,-5.6 -12.5,-12.5s5.6,-12.5 12.5,-12.5s12.5,5.6 12.5,12.5z" fill="#000000" fill-rule="evenodd" id="path2316" stroke="#000000" stroke-width="3" transform="translate(337.5,87.5)"/>
   </g>
  </g>
 </g>
</svg>